<?xml version="1.0" standalone="no"?><!DOCTYPE svg PUBLIC "-//W3C//DTD SVG 1.1//EN" "http://www.w3.org/Graphics/SVG/1.1/DTD/svg11.dtd"><svg t="1565157636278" class="icon" viewBox="0 0 1024 1024" version="1.1" xmlns="http://www.w3.org/2000/svg" p-id="11668" xmlns:xlink="http://www.w3.org/1999/xlink" width="200" height="200"><defs><style type="text/css"></style></defs><path d="M512.002-0.001C229.247-0.001 0 229.282 0 512.001c0 282.773 229.247 511.996 512.002 511.996 282.742 0 511.995-229.223 511.995-511.996C1023.997 229.282 794.745-0.001 512.002-0.001L512.002-0.001zM524.534 180.921c45.996 0 83.208 37.29 83.208 83.185 0 46.001-37.213 83.242-83.208 83.242-45.893 0-83.21-37.241-83.21-83.242C441.318 218.211 478.641 180.921 524.534 180.921L524.534 180.921zM672.459 809.173 393.824 809.173l0-36.509 34.892-12.891c19.532-7.177 32.533-25.854 32.533-46.605l0-196.822c0-20.788-12.997-39.428-32.533-46.574l-34.892-12.92 0-37.295 211.18 0 0 293.614c0 20.747 12.999 39.428 32.569 46.6l34.887 12.896 0 36.505L672.459 809.172z" p-id="11669" fill="#4b4b4b"></path></svg>